External Loads File
version=1
nRows=62
nColumns=13
Range=5.000000e-03-10 seconds
endheader
time 	forceRightX 	forceRightY 	forceRightZ 	pointRightX 	pointRightY 	pointRightZ 	forceLeftX 	forceLeftY 	forceLeftZ 	pointLeftX 	pointLeftY 	pointLeftZ 		
5.005000 100.291429 136.960600 -0.000000 0.238796 0.178188 -0.185423 -66.969062 111.493193 -0.000000 0.398444 0.483184 -0.443219
5.010000 95.222327 110.806290 -0.000000 0.227741 0.183749 -0.185285 -72.188360 137.992638 -0.000000 0.405327 0.477353 -0.443445
5.015000 90.303103 88.481900 -0.000000 0.217224 0.189742 -0.185432 -78.764414 167.704368 -0.000000 0.411904 0.470976 -0.443669
5.020000 85.909333 69.815743 -0.000000 0.207082 0.196421 -0.185416 -86.521642 200.144487 -0.000000 0.418067 0.463809 -0.443835
5.025000 82.177629 54.524844 -0.000000 0.197663 0.203509 -0.185197 -95.354427 234.517624 -0.000000 0.424041 0.455917 -0.444087
5.030000 79.123743 42.150486 -0.000000 0.188685 0.211177 -0.185089 -105.061440 269.857128 -0.000000 0.429627 0.447421 -0.444402
5.035000 76.616042 32.174453 -0.000000 0.180821 0.219176 -0.184864 -115.503159 305.079796 -0.000000 0.435280 0.438791 -0.444291
5.040000 74.495418 23.909543 -0.000000 0.173166 0.227731 -0.184859 -125.764247 339.423384 -0.000000 0.440840 0.429356 -0.444478
5.045000 72.436584 17.092645 -0.000000 0.166280 0.236600 -0.184826 -136.308186 371.740063 -0.000000 0.445932 0.419547 -0.444589
5.050000 70.240933 11.298369 -0.000000 0.160105 0.245865 -0.184921 -146.471028 401.544889 -0.000000 0.450673 0.409360 -0.444672
5.055000 67.710127 6.329598 -0.000000 0.154520 0.255373 -0.185288 -156.179870 428.464766 -0.000000 0.455033 0.398964 -0.444862
5.060000 64.701400 2.083459 -0.000000 0.149647 0.265204 -0.185511 -165.488859 452.477013 -0.000000 0.458948 0.388511 -0.444920
5.065000 61.146928 -1.484647 -0.000000 0.145414 0.275122 -0.185691 -174.380345 473.979455 -0.000000 0.462577 0.377949 -0.444916
5.070000 57.070095 -4.388908 -0.000000 0.141843 0.285412 -0.185848 -182.534068 493.767081 -0.000000 0.465602 0.367192 -0.444810
5.075000 52.593286 -6.538187 -0.000000 0.138980 0.295740 -0.186003 -190.199464 512.535947 -0.000000 0.468140 0.356297 -0.444696
5.080000 47.907261 -7.947383 -0.000000 0.136540 0.306248 -0.186475 -196.943724 531.175466 -0.000000 0.470085 0.345326 -0.444785
5.085000 43.229264 -8.684869 -0.000000 0.134935 0.316935 -0.186856 -202.273028 550.408142 -0.000000 0.471345 0.334198 -0.444687
5.090000 38.767036 -8.815043 -0.000000 0.134338 0.327576 -0.187090 -206.380356 570.455595 -0.000000 0.472470 0.323136 -0.444208
5.095000 34.642383 -8.535491 -0.000000 0.134215 0.338365 -0.186970 -208.411698 591.714706 -0.000000 0.472611 0.312050 -0.444680
5.100000 30.884728 -8.035139 -0.000000 0.135021 0.349094 -0.187546 -208.303058 614.158925 -0.000000 0.471926 0.300941 -0.444223
5.105000 27.420075 -7.524614 -0.000000 0.136576 0.359883 -0.187750 -205.853860 637.702269 -0.000000 0.470614 0.289959 -0.444139
5.110000 24.106719 -7.171357 -0.000000 0.138997 0.370550 -0.188309 -201.054140 662.049014 -0.000000 0.468605 0.279075 -0.444089
5.115000 20.751432 -7.129085 -0.000000 0.142052 0.381498 -0.188690 -192.957060 686.966241 -0.000000 0.466006 0.268284 -0.444063
5.120000 17.188052 -7.411616 -0.000000 0.145013 0.391903 -0.190710 -183.838641 711.069853 -0.000000 0.462779 0.257706 -0.443965
5.125000 13.228060 -8.159190 -0.000000 0.150686 0.402232 -0.189906 -170.215550 734.370015 -0.000000 0.458883 0.247493 -0.443949
5.130000 8.807961 -9.329377 -0.000000 0.156301 0.412402 -0.190309 -154.569905 755.255668 -0.000000 0.454381 0.237655 -0.443832
5.135000 3.904099 -10.926674 -0.000000 0.162416 0.422215 -0.190822 -137.118243 772.856458 -0.000000 0.449386 0.228188 -0.443695
5.140000 -1.479857 -12.929539 -0.000000 0.169455 0.431888 -0.191347 -117.015417 786.629982 -0.000000 0.443812 0.219140 -0.443585
5.145000 -7.283136 -15.285334 -0.000000 0.177019 0.440997 -0.191869 -95.940090 795.815740 -0.000000 0.437754 0.210459 -0.443573
5.150000 -13.460287 -17.933180 -0.000000 0.185291 0.449752 -0.192501 -73.755238 800.185490 -0.000000 0.431310 0.202185 -0.443487
5.155000 -19.947108 -20.786558 -0.000000 0.194263 0.458165 -0.193107 -50.577117 799.636092 -0.000000 0.424390 0.194339 -0.443454
5.160000 -26.687337 -23.692803 -0.000000 0.204617 0.466158 -0.192995 -25.735712 794.242543 -0.000000 0.417061 0.187058 -0.443477
5.165000 -33.423887 -26.670093 -0.000000 0.213680 0.473671 -0.194372 -4.749595 784.071024 -0.000000 0.409420 0.180293 -0.443410
5.170000 -40.223215 -29.292683 -0.000000 0.224252 0.480595 -0.194716 17.635520 769.620092 -0.000000 0.401390 0.174202 -0.443412
5.175000 -46.920678 -31.319217 -0.000000 0.234995 0.487059 -0.195123 39.025006 751.213274 -0.000000 0.393004 0.168647 -0.443407
5.180000 -53.435116 -32.343266 -0.000000 0.246244 0.492851 -0.195563 59.695972 729.214134 -0.000000 0.384315 0.163648 -0.443471
5.185000 -59.620724 -32.023256 -0.000000 0.257779 0.497868 -0.195884 78.928943 704.020828 -0.000000 0.375390 0.159368 -0.443465
5.190000 -65.323474 -30.066294 -0.000000 0.269461 0.502227 -0.196056 96.526024 676.009492 -0.000000 0.366203 0.155701 -0.443487
5.195000 -70.381277 -26.270964 -0.000000 0.281481 0.505879 -0.196198 112.528825 645.496456 -0.000000 0.356762 0.152738 -0.443436
5.200000 -74.584218 -20.620450 -0.000000 0.293651 0.508777 -0.196313 126.296355 612.872701 -0.000000 0.347206 0.150366 -0.443443
5.205000 -77.748451 -13.120281 -0.000000 0.306156 0.510849 -0.196621 137.906238 578.385329 -0.000000 0.337592 0.148893 -0.443361
5.210000 -79.713108 -4.049097 -0.000000 0.318150 0.512327 -0.196271 145.928969 542.629040 -0.000000 0.327966 0.148029 -0.443280
5.215000 -80.463554 6.698793 -0.000000 0.330441 0.513070 -0.196354 151.789609 505.470090 -0.000000 0.318322 0.147796 -0.443180
5.220000 -80.026869 19.032952 -0.000000 0.342739 0.513078 -0.196371 155.088313 467.186619 -0.000000 0.308682 0.148322 -0.443078
5.225000 -78.562396 32.942113 -0.000000 0.354803 0.512316 -0.196358 155.642246 428.078713 -0.000000 0.299176 0.149603 -0.442927
5.230000 -76.350791 48.539299 -0.000000 0.366580 0.510804 -0.196219 153.677703 388.444101 -0.000000 0.289780 0.151527 -0.442786
5.235000 -73.749132 66.003635 -0.000000 0.378102 0.508621 -0.196208 149.513727 348.741560 -0.000000 0.280515 0.154129 -0.442681
5.240000 -71.129808 85.553803 -0.000000 0.389268 0.505512 -0.196164 143.523348 309.616023 -0.000000 0.271442 0.157401 -0.442598
5.245000 -68.803932 107.459935 -0.000000 0.400172 0.501754 -0.196525 136.221346 271.746077 -0.000000 0.262315 0.161355 -0.441938
5.250000 -67.102913 131.964896 -0.000000 0.410703 0.496918 -0.196196 127.937084 235.863181 -0.000000 0.253769 0.165874 -0.441874
5.255000 -66.225198 159.361913 -0.000000 0.420696 0.491176 -0.195931 119.237842 202.479301 -0.000000 0.245430 0.170952 -0.441820
5.260000 -66.253793 189.858437 -0.000000 0.429938 0.484079 -0.195806 110.691674 171.966752 -0.000000 0.237409 0.176646 -0.441795
5.265000 -67.702933 223.260146 -0.000000 0.438535 0.477398 -0.195675 102.459918 144.797493 -0.000000 0.229614 0.182890 -0.441938
5.270000 -70.322140 259.270404 -0.000000 0.446805 0.469756 -0.195265 95.290320 120.812524 -0.000000 0.222273 0.189676 -0.441958
5.275000 -74.509055 297.005463 -0.000000 0.454288 0.461539 -0.194823 89.274440 99.997593 -0.000000 0.215331 0.197012 -0.442021
5.280000 -80.236537 335.418241 -0.000000 0.461249 0.452542 -0.194280 84.582418 82.043457 -0.000000 0.208874 0.204551 -0.442164
5.285000 -86.787598 373.468281 -0.000000 0.468027 0.442724 -0.192984 81.293689 66.462538 -0.000000 0.202950 0.212664 -0.442372
5.290000 -94.426696 409.890196 -0.000000 0.474461 0.432805 -0.192001 79.064331 52.998927 -0.000000 0.197421 0.221236 -0.442600
5.295000 -102.781346 443.730556 -0.000000 0.480903 0.422686 -0.192529 77.605649 41.269527 -0.000000 0.192546 0.230250 -0.443013
5.300000 -111.909152 474.220640 -0.000000 0.486851 0.412192 -0.192893 76.562491 31.076368 -0.000000 0.188376 0.239448 -0.443278
5.305000 -121.179238 501.114209 -0.000000 0.492379 0.401271 -0.192377 75.693714 22.196397 -0.000000 0.184825 0.248948 -0.443547
5.310000 -130.965639 524.295518 -0.000000 0.497560 0.390264 -0.192348 74.762928 14.590598 -0.000000 0.181879 0.258537 -0.443879
